<?xml version="1.0" encoding="UTF-8" standalone="no"?>
<svg
   xmlns:dc="http://purl.org/dc/elements/1.1/"
   xmlns:cc="http://creativecommons.org/ns#"
   xmlns:rdf="http://www.w3.org/1999/02/22-rdf-syntax-ns#"
   xmlns:svg="http://www.w3.org/2000/svg"
   xmlns="http://www.w3.org/2000/svg"
   xmlns:sodipodi="http://sodipodi.sourceforge.net/DTD/sodipodi-0.dtd"
   xmlns:inkscape="http://www.inkscape.org/namespaces/inkscape"
   id="workspace"
   style="text-rendering:geometricPrecision"
   version="1.1"
   inkscape:version="0.91 r13725"
   sodipodi:docname="glosa-logo.svg"
   width="695.12854"
   height="232.49998">
  <metadata
     id="metadata529">
    <rdf:RDF>
      <cc:Work
         rdf:about="">
        <dc:format>image/svg+xml</dc:format>
        <dc:type
           rdf:resource="http://purl.org/dc/dcmitype/StillImage" />
        <dc:title></dc:title>
      </cc:Work>
    </rdf:RDF>
  </metadata>
  <sodipodi:namedview
     pagecolor="#ffffff"
     bordercolor="#666666"
     borderopacity="1"
     objecttolerance="10"
     gridtolerance="10"
     guidetolerance="10"
     inkscape:pageopacity="0"
     inkscape:pageshadow="2"
     inkscape:window-width="1366"
     inkscape:window-height="697"
     id="namedview527"
     showgrid="false"
     fit-margin-top="0"
     fit-margin-left="0"
     fit-margin-right="0"
     fit-margin-bottom="0"
     inkscape:zoom="0.417193"
     inkscape:cx="358.95088"
     inkscape:cy="-246.16401"
     inkscape:window-x="0"
     inkscape:window-y="24"
     inkscape:window-maximized="1"
     inkscape:current-layer="workspace" />
  <desc
     id="desc3">Created with Snap</desc>
  <defs
     id="defs5">
    <linearGradient
       x1="0"
       y1="0.5"
       x2="1"
       y2="0.5"
       id="linearGradientSk26n8vyi1c">
      <stop
         offset="0%"
         stop-color="#b1b1b1"
         id="stop8" />
      <stop
         offset="100%"
         stop-color="#b1b1b1"
         id="stop10" />
    </linearGradient>
    <linearGradient
       x1="0"
       y1="0.5"
       x2="1"
       y2="0.5"
       id="linearGradientSk26n8vyi1l">
      <stop
         offset="0%"
         stop-color="#000000"
         id="stop13" />
      <stop
         offset="100%"
         stop-color="#000000"
         id="stop15" />
    </linearGradient>
    <linearGradient
       x1="0"
       y1="0.5"
       x2="1"
       y2="0.5"
       id="linearGradientSk26n8vyi1u">
      <stop
         offset="0%"
         stop-color="#000000"
         id="stop18" />
      <stop
         offset="100%"
         stop-color="#000000"
         id="stop20" />
    </linearGradient>
    <linearGradient
       x1="0"
       y1="0.5"
       x2="1"
       y2="0.5"
       id="linearGradientSk26n8vyi23">
      <stop
         offset="0%"
         stop-color="#000000"
         id="stop23" />
      <stop
         offset="100%"
         stop-color="#000000"
         id="stop25" />
    </linearGradient>
    <linearGradient
       x1="0"
       y1="0.5"
       x2="1"
       y2="0.5"
       id="linearGradientSk26n8vyi2c">
      <stop
         offset="0%"
         stop-color="#000000"
         id="stop28" />
      <stop
         offset="100%"
         stop-color="#000000"
         id="stop30" />
    </linearGradient>
    <linearGradient
       x1="0"
       y1="0.5"
       x2="1"
       y2="0.5"
       id="linearGradientSk26n8vyi2l">
      <stop
         offset="0%"
         stop-color="#000000"
         id="stop33" />
      <stop
         offset="100%"
         stop-color="#000000"
         id="stop35" />
    </linearGradient>
    <linearGradient
       x1="0"
       y1="0.5"
       x2="1"
       y2="0.5"
       id="linearGradientSk26n8vyi2u">
      <stop
         offset="0%"
         stop-color="#000000"
         id="stop38" />
      <stop
         offset="100%"
         stop-color="#000000"
         id="stop40" />
    </linearGradient>
    <linearGradient
       x1="0"
       y1="0.5"
       x2="1"
       y2="0.5"
       id="linearGradientSk26n8vyi33">
      <stop
         offset="0%"
         stop-color="#000000"
         id="stop43" />
      <stop
         offset="100%"
         stop-color="#000000"
         id="stop45" />
    </linearGradient>
    <linearGradient
       x1="0"
       y1="0.5"
       x2="1"
       y2="0.5"
       id="linearGradientSk26n8vyi3c">
      <stop
         offset="0%"
         stop-color="#000000"
         id="stop48" />
      <stop
         offset="100%"
         stop-color="#000000"
         id="stop50" />
    </linearGradient>
    <linearGradient
       x1="0"
       y1="0.5"
       x2="1"
       y2="0.5"
       id="linearGradientSk26n8vyi3l">
      <stop
         offset="0%"
         stop-color="#000000"
         id="stop53" />
      <stop
         offset="100%"
         stop-color="#000000"
         id="stop55" />
    </linearGradient>
    <linearGradient
       x1="0"
       y1="0.5"
       x2="1"
       y2="0.5"
       id="linearGradientSk26n8vyi42">
      <stop
         offset="0%"
         stop-color="#b1b1b1"
         id="stop58" />
      <stop
         offset="100%"
         stop-color="#b1b1b1"
         id="stop60" />
    </linearGradient>
    <linearGradient
       x1="0"
       y1="0.5"
       x2="1"
       y2="0.5"
       id="linearGradientSk26n8vyi45">
      <stop
         offset="0%"
         stop-color="#000000"
         id="stop63" />
      <stop
         offset="100%"
         stop-color="#000000"
         id="stop65" />
    </linearGradient>
    <linearGradient
       x1="0"
       y1="0.5"
       x2="1"
       y2="0.5"
       id="linearGradientSk26n8vyi48">
      <stop
         offset="0%"
         stop-color="#000000"
         id="stop68" />
      <stop
         offset="100%"
         stop-color="#000000"
         id="stop70" />
    </linearGradient>
    <linearGradient
       x1="0"
       y1="0.5"
       x2="1"
       y2="0.5"
       id="linearGradientSk26n8vyi4b">
      <stop
         offset="0%"
         stop-color="#000000"
         id="stop73" />
      <stop
         offset="100%"
         stop-color="#000000"
         id="stop75" />
    </linearGradient>
    <linearGradient
       x1="0"
       y1="0.5"
       x2="1"
       y2="0.5"
       id="linearGradientSk26n8vyi4e">
      <stop
         offset="0%"
         stop-color="#000000"
         id="stop78" />
      <stop
         offset="100%"
         stop-color="#000000"
         id="stop80" />
    </linearGradient>
    <linearGradient
       x1="0"
       y1="0.5"
       x2="1"
       y2="0.5"
       id="linearGradientSk26n8vyi4h">
      <stop
         offset="0%"
         stop-color="#000000"
         id="stop83" />
      <stop
         offset="100%"
         stop-color="#000000"
         id="stop85" />
    </linearGradient>
    <linearGradient
       x1="0"
       y1="0.5"
       x2="1"
       y2="0.5"
       id="linearGradientSk26n8vyi4k">
      <stop
         offset="0%"
         stop-color="#000000"
         id="stop88" />
      <stop
         offset="100%"
         stop-color="#000000"
         id="stop90" />
    </linearGradient>
    <linearGradient
       x1="0"
       y1="0.5"
       x2="1"
       y2="0.5"
       id="linearGradientSk26n8vyi4n">
      <stop
         offset="0%"
         stop-color="#000000"
         id="stop93" />
      <stop
         offset="100%"
         stop-color="#000000"
         id="stop95" />
    </linearGradient>
    <linearGradient
       x1="0"
       y1="0.5"
       x2="1"
       y2="0.5"
       id="linearGradientSk26n8vyi4q">
      <stop
         offset="0%"
         stop-color="#000000"
         id="stop98" />
      <stop
         offset="100%"
         stop-color="#000000"
         id="stop100" />
    </linearGradient>
    <linearGradient
       x1="0"
       y1="0.5"
       x2="1"
       y2="0.5"
       id="linearGradientSk26n8vyi4t">
      <stop
         offset="0%"
         stop-color="#000000"
         id="stop103" />
      <stop
         offset="100%"
         stop-color="#000000"
         id="stop105" />
    </linearGradient>
    <linearGradient
       x1="0"
       y1="0.5"
       x2="1"
       y2="0.5"
       id="linearGradientSk26n8vyi52">
      <stop
         offset="0%"
         stop-color="#b1b1b1"
         id="stop108" />
      <stop
         offset="100%"
         stop-color="#b1b1b1"
         id="stop110" />
    </linearGradient>
    <linearGradient
       x1="0"
       y1="0.5"
       x2="1"
       y2="0.5"
       id="linearGradientSk26n8vyi55">
      <stop
         offset="0%"
         stop-color="#000000"
         id="stop113" />
      <stop
         offset="100%"
         stop-color="#000000"
         id="stop115" />
    </linearGradient>
    <linearGradient
       x1="0"
       y1="0.5"
       x2="1"
       y2="0.5"
       id="linearGradientSk26n8vyi58">
      <stop
         offset="0%"
         stop-color="#000000"
         id="stop118" />
      <stop
         offset="100%"
         stop-color="#000000"
         id="stop120" />
    </linearGradient>
    <linearGradient
       x1="0"
       y1="0.5"
       x2="1"
       y2="0.5"
       id="linearGradientSk26n8vyi5b">
      <stop
         offset="0%"
         stop-color="#000000"
         id="stop123" />
      <stop
         offset="100%"
         stop-color="#000000"
         id="stop125" />
    </linearGradient>
    <linearGradient
       x1="0"
       y1="0.5"
       x2="1"
       y2="0.5"
       id="linearGradientSk26n8vyi5e">
      <stop
         offset="0%"
         stop-color="#000000"
         id="stop128" />
      <stop
         offset="100%"
         stop-color="#000000"
         id="stop130" />
    </linearGradient>
    <linearGradient
       x1="0"
       y1="0.5"
       x2="1"
       y2="0.5"
       id="linearGradientSk26n8vyi5h">
      <stop
         offset="0%"
         stop-color="#000000"
         id="stop133" />
      <stop
         offset="100%"
         stop-color="#000000"
         id="stop135" />
    </linearGradient>
    <linearGradient
       x1="0"
       y1="436.09119"
       x2="35.719749"
       y2="436.09119"
       id="linearGradientSk26n8vyi5k"
       gradientTransform="scale(4.9480191,0.20210108)"
       gradientUnits="userSpaceOnUse">
      <stop
         offset="0%"
         stop-color="#000000"
         id="stop138" />
      <stop
         offset="100%"
         stop-color="#000000"
         id="stop140" />
    </linearGradient>
    <linearGradient
       x1="0"
       y1="436.09119"
       x2="35.719749"
       y2="436.09119"
       id="linearGradientSk26n8vyi5n"
       gradientTransform="scale(4.9480191,0.20210108)"
       gradientUnits="userSpaceOnUse">
      <stop
         offset="0%"
         stop-color="#000000"
         id="stop143" />
      <stop
         offset="100%"
         stop-color="#000000"
         id="stop145" />
    </linearGradient>
    <linearGradient
       x1="0"
       y1="436.09119"
       x2="35.719749"
       y2="436.09119"
       id="linearGradientSk26n8vyi5q"
       gradientTransform="scale(4.9480191,0.20210108)"
       gradientUnits="userSpaceOnUse">
      <stop
         offset="0%"
         stop-color="#000000"
         id="stop148" />
      <stop
         offset="100%"
         stop-color="#000000"
         id="stop150" />
    </linearGradient>
    <linearGradient
       x1="0"
       y1="436.09119"
       x2="35.719749"
       y2="436.09119"
       id="linearGradientSk26n8vyi5t"
       gradientTransform="scale(4.9480191,0.20210108)"
       gradientUnits="userSpaceOnUse">
      <stop
         offset="0%"
         stop-color="#000000"
         id="stop153" />
      <stop
         offset="100%"
         stop-color="#000000"
         id="stop155" />
    </linearGradient>
    <linearGradient
       x1="0"
       y1="436.09119"
       x2="35.719749"
       y2="436.09119"
       id="linearGradientSk26n8vyi6h"
       gradientTransform="scale(4.9480191,0.20210108)"
       gradientUnits="userSpaceOnUse">
      <stop
         offset="0%"
         stop-color="#000000"
         id="stop158" />
      <stop
         offset="100%"
         stop-color="#000000"
         id="stop160" />
    </linearGradient>
    <linearGradient
       x1="13"
       y1="40"
       x2="67"
       y2="40"
       id="linearGradientSk26n8vyi6k"
       gradientUnits="userSpaceOnUse">
      <stop
         offset="0%"
         stop-color="#000000"
         id="stop163" />
      <stop
         offset="100%"
         stop-color="#000000"
         id="stop165" />
    </linearGradient>
    <linearGradient
       x1="0"
       y1="0.5"
       x2="1"
       y2="0.5"
       id="linearGradientSk26n8vyi6n">
      <stop
         offset="0%"
         stop-color="#b1b1b1"
         id="stop168" />
      <stop
         offset="100%"
         stop-color="#b1b1b1"
         id="stop170" />
    </linearGradient>
    <linearGradient
       x1="0"
       y1="0.5"
       x2="1"
       y2="0.5"
       id="linearGradientSk26n8vyi6q">
      <stop
         offset="0%"
         stop-color="#000000"
         id="stop173" />
      <stop
         offset="100%"
         stop-color="#000000"
         id="stop175" />
    </linearGradient>
    <linearGradient
       x1="0.36380553"
       y1="90.471924"
       x2="-10.878043"
       y2="18.254976"
       id="linearGradientSk26n8vyi6t"
       gradientTransform="scale(1.07475,0.9304489)"
       gradientUnits="userSpaceOnUse">
      <stop
         offset="0%"
         stop-color="#b1b1b1"
         id="stop178" />
      <stop
         offset="100%"
         stop-color="#b1b1b1"
         id="stop180" />
    </linearGradient>
    <linearGradient
       x1="0"
       y1="0.5"
       x2="1"
       y2="0.5"
       id="linearGradientSk26n8vyi6w">
      <stop
         offset="0%"
         stop-color="#000000"
         id="stop183" />
      <stop
         offset="100%"
         stop-color="#000000"
         id="stop185" />
    </linearGradient>
    <linearGradient
       x1="0"
       y1="436.09119"
       x2="35.719749"
       y2="436.09119"
       id="linearGradientSk26n8vyi6z"
       gradientTransform="scale(4.9480191,0.20210108)"
       gradientUnits="userSpaceOnUse">
      <stop
         offset="0%"
         stop-color="#000000"
         id="stop188" />
      <stop
         offset="100%"
         stop-color="#000000"
         id="stop190" />
    </linearGradient>
    <linearGradient
       x1="0"
       y1="436.09119"
       x2="35.719749"
       y2="436.09119"
       id="linearGradientSk26n8vyi72"
       gradientTransform="scale(4.9480191,0.20210108)"
       gradientUnits="userSpaceOnUse">
      <stop
         offset="0%"
         stop-color="#000000"
         id="stop193" />
      <stop
         offset="100%"
         stop-color="#000000"
         id="stop195" />
    </linearGradient>
    <linearGradient
       x1="0"
       y1="436.09119"
       x2="35.719749"
       y2="436.09119"
       id="linearGradientSk26n8vyi75"
       gradientTransform="scale(4.9480191,0.20210108)"
       gradientUnits="userSpaceOnUse">
      <stop
         offset="0%"
         stop-color="#000000"
         id="stop198" />
      <stop
         offset="100%"
         stop-color="#000000"
         id="stop200" />
    </linearGradient>
    <linearGradient
       x1="-108.32882"
       y1="-65.847572"
       x2="108.67667"
       y2="-65.847572"
       id="linearGradientSk26n8vyi7e"
       gradientTransform="scale(1.9629623,0.50943413)"
       gradientUnits="userSpaceOnUse">
      <stop
         offset="0%"
         stop-color="#000000"
         id="stop203" />
      <stop
         offset="100%"
         stop-color="#000000"
         id="stop205" />
    </linearGradient>
    <linearGradient
       x1="-66.771729"
       y1="-65.235504"
       x2="66.011116"
       y2="-65.235504"
       id="linearGradientSk26n8vyi7q"
       gradientTransform="scale(1.4819514,0.67478594)"
       gradientUnits="userSpaceOnUse">
      <stop
         offset="0%"
         stop-color="#000000"
         id="stop208" />
      <stop
         offset="100%"
         stop-color="#000000"
         id="stop210" />
    </linearGradient>
  </defs>
  <g
     class="selector-part"
     transform="translate(496.82512,250.19453)"
     id="g216">
    <rect
       x="0"
       y="0"
       width="0"
       height="0"
       fill="rgba(255,255,255,0)"
       id="rect218" />
  </g>
  <g
     transform="matrix(1.2617,1.2617,-0.7315,0.7315,-317.63038,131.23333)"
     style="opacity:1"
     class="svg-clip svg-visible"
     id="g220">
    <rect
       x="0"
       y="0"
       width="185"
       height="162"
       style="fill:none"
       class="svg-hitbox"
       id="rect222" />
    <svg
       width="185.98801"
       height="162.35899"
       viewBox="-4.609 3 185.988 162.359"
       class="thumb"
       id="svg224"
       version="1.1"
       inkscape:version="0.91 r13725">
      <desc
         id="desc226">Created with Snap</desc>
      <defs
         id="defs228" />
      <g
         id="g230" />
      <g
         id="g232" />
      <g
         id="g234" />
      <g
         id="g236" />
      <g
         id="g238" />
    </svg>
    <path
       style="color:#000000;clip-rule:nonzero;display:inline;overflow:visible;visibility:visible;opacity:0.897;isolation:auto;mix-blend-mode:normal;color-interpolation:sRGB;color-interpolation-filters:linearRGB;solid-color:#000000;solid-opacity:1;fill:#b1b1b1;fill-opacity:1;fill-rule:nonzero;stroke:none;stroke-width:1px;stroke-linecap:butt;stroke-linejoin:miter;stroke-miterlimit:4;stroke-dasharray:none;stroke-dashoffset:0;stroke-opacity:1;color-rendering:auto;image-rendering:auto;shape-rendering:auto;text-rendering:auto;enable-background:accumulate"
       d="m 77.183688,-306.33492 175.649212,0.0382 -87.8002,-152.3083 z"
       id="rect4773"
       inkscape:connector-curvature="0"
       sodipodi:nodetypes="cccc" />
  </g>
  <g
     id="g456"
     transform="translate(-402.17488,-72.80547)">
    <rect
       x="0"
       y="0"
       width="0"
       height="0"
       fill="rgba(255,136,0,0.1)"
       style="stroke:#ff8800;stroke-width:1"
       id="rect458" />
  </g>
  <g
     class="selector-part"
     id="g460"
     transform="translate(-402.17488,-72.80547)">
    <rect
       x="0"
       y="0"
       width="0"
       height="0"
       fill="rgba(168,202,236,0.5)"
       style="stroke:#3399ff;stroke-width:1"
       id="rect462" />
  </g>
  <path
     style="fill:#000000"
     d="M 0,116.24999 0,0 l 116.1,0 116.1,0 0,59.790003 c 0,42.654717 0.093,59.883457 0.3261,60.116127 0.2349,0.23486 0.2349,0.38256 0,0.52771 -0.2329,0.14398 -0.3261,16.18067 -0.3261,56.13386 l 0,55.93229 -116.1,0 -116.1,0 0,-116.25 z m 112.8,107.47467 c 0,-0.0414 -23.490001,-23.56503 -52.2,-52.27467 l -52.2,-52.19935 0,52.27468 0,52.27467 52.2,0 c 28.709999,0 52.2,-0.0339 52.2,-0.0753 z m 81.3747,-21.5994 -21.6747,-21.67475 -21.6747,21.67475 -21.6748,21.67473 43.3495,0 43.3495,0 -21.6748,-21.67473 z M 102.8255,110.77551 C 45.626,53.575533 40.5725,48.600003 39.6753,48.600003 c -0.9006,0 -0.9753,-0.0748 -0.9753,-0.97612 0,-0.88863 -1.3578,-2.33375 -15.15,-16.12388 L 8.4,16.35223 l 0,43.950573 0,43.950577 56.325,56.32258 56.3249,56.32259 21.9753,-21.97377 21.9753,-21.97375 -62.175,-62.17552 z m 120.6745,62.10026 0,-43.42421 -21.6,21.59843 c -11.88,11.87915 -21.6,21.73344 -21.6,21.89845 0,0.24607 42.8795,43.35155 43.1242,43.35155 0.042,0 0.076,-19.54089 0.076,-43.42422 z m -25.4257,-33.00011 25.4257,-25.42434 0,-46.500317 0,-46.500313 -48.6,48.599313 c -26.73,26.72961 -48.6,48.734127 -48.6,48.898917 0,0.29437 45.9052,46.35107 46.1986,46.35107 0.083,0 11.5916,-11.44095 25.5757,-25.42433 z M 128.7734,101.17665 C 134.343,95.608813 138.9,90.951313 138.9,90.826653 c 0,-0.12466 -9.18,-0.22665 -20.4,-0.22665 -11.22,0 -20.400001,0.10051 -20.400001,0.22336 0,0.24449 20.153201,20.476627 20.396701,20.476627 0.082,0 4.707,-4.5555 10.2767,-10.12334 z M 154.2,75.750003 l 4.9432,-4.95 -40.643,0 -40.6429,0 4.642699,4.65 4.6427,4.65 30.978701,0 c 20.4524,0 30.9786,0.10193 30.9786,0.3 0,0.165 0.035,0.3 0.078,0.3 0.043,0 2.3028,-2.2275 5.0216,-4.95 z m 21.2237,-21.22368 c 3.012,-3.00863 5.4763,-5.57286 5.4763,-5.69828 0,-0.12543 -28.08,-0.22804 -62.4,-0.22804 -34.320001,0 -62.4,0.0999 -62.4,0.22211 0,0.12216 2.4962,2.72091 5.5471,5.775 l 5.5471,5.55289 51.3767,-0.0767 51.3766,-0.0767 5.4762,-5.47025 z M 196.5,33.450003 201.1427,28.8 118.4964,28.803 35.85,28.806 l 4.6692,4.647443 4.6692,4.64744 73.3344,0 73.3345,0 4.6427,-4.65028 z M 118.35,18 c 73.724,0 92.5289,0.0761 92.6425,0.375 0.082,0.2172 2.2701,-1.73948 5.1988,-4.65 l 5.0565,-5.025 -102.7455,0 -102.7455,0 4.9458,4.95256 c 2.7201,2.72391 4.9911,4.81641 5.0465,4.65 C 25.8171,18.10002 56.4282,18 118.35,18 Z m 351.90005,207.15074 c -3.8189,-0.7185 -6.1126,-1.85388 -7.9324,-3.92649 -2.3404,-2.66562 -3.5291,-7.55718 -2.6928,-11.08197 l 0.4252,-1.79229 4.35,0 4.35,0 0.199,2.01297 c 0.2367,2.39382 1.0585,4.00638 2.5696,5.04219 0.9622,0.65958 1.4005,0.74484 3.8297,0.74484 2.4775,0 2.8618,-0.0784 3.9679,-0.8097 2.617,-1.73025 3.3593,-4.84893 3.3745,-14.17776 l 0.01,-5.68746 -1.275,1.24416 c -3.0549,2.98098 -6.4141,4.18455 -10.8983,3.9048 -2.0514,-0.12798 -2.9403,-0.34527 -4.4471,-1.08708 -4.6482,-2.28834 -7.5365,-7.66068 -8.5637,-15.9291 -0.4025,-3.23957 -0.4069,-29.73401 -0.01,-32.55786 1.1341,-7.97682 3.9464,-12.90395 8.6137,-15.09123 1.597,-0.74838 2.017,-0.80877 5.6258,-0.80877 3.6609,0 4.0142,0.0528 5.7635,0.8608 1.9689,0.90951 4.6775,3.43471 5.6022,5.22292 0.2748,0.53146 0.5455,0.96628 0.6015,0.96628 0.056,0 0.3408,-1.485 0.6328,-3.3 l 0.5309,-3.3 4.9265,0 4.9264,0 -0.107,35.175 c -0.099,32.42862 -0.1494,35.39751 -0.6502,38.025 -1.8038,9.46437 -6.2863,14.78298 -13.7604,16.32681 -2.7217,0.56217 -7.0502,0.57258 -9.9662,0.024 z m 7.8736,-34.51218 c 1.421,-0.59376 2.0694,-1.1799 3.1218,-2.82231 l 0.8546,-1.33374 0,-18.86097 c 0,-13.58177 -0.096,-19.0444 -0.3434,-19.51627 -1.388,-2.64835 -3.5046,-4.10528 -5.9644,-4.10528 -3.6121,0 -5.3743,2.45368 -6.0191,8.38094 -0.201,1.84769 -0.2722,8.21945 -0.1916,17.15431 0.1098,12.17644 0.2021,14.50278 0.6441,16.2234 0.6025,2.34576 1.9137,4.31295 3.2672,4.90158 1.2758,0.55488 3.2733,0.54552 4.6308,-0.0216 z M 351.3,203.88836 c -4.2895,-1.24968 -6.7284,-3.99327 -8.3014,-9.33837 -0.4807,-1.63317 -0.5446,-4.03851 -0.6892,-25.95 l -0.1594,-24.15 -2.625,-0.0867 -2.625,-0.0867 0,-4.32817 0,-4.32817 3.2176,-0.0851 3.2176,-0.0851 1.2606,-8.7 c 0.6933,-4.785 1.2704,-8.73375 1.2824,-8.775 0.012,-0.0412 1.9793,-0.075 4.3718,-0.075 l 4.35,0 0,8.85 0,8.85 5.4,0 5.4,0 0,4.34308 0,4.34308 -5.325,0.0819 -5.325,0.0819 0,23.25 0,23.25 0.7516,1.35 c 1.0858,1.95018 2.2501,2.46507 5.2484,2.3211 1.5876,-0.0762 2.8824,-0.33057 3.825,-0.75129 l 1.425,-0.63606 0,3.37224 0,3.37224 -1.125,1.09422 c -0.6187,0.60183 -2.0678,1.53426 -3.2202,2.07201 -1.9313,0.90132 -2.3654,0.98403 -5.55,1.0575 -2.1946,0.0506 -3.9472,-0.0637 -4.8048,-0.31359 z m 34.7175,-0.0391 c -7.2498,-1.83597 -11.3425,-7.55166 -13.0266,-18.19194 -0.7731,-4.88473 -0.7866,-27.43351 -0.019,-31.76087 1.2197,-6.87628 3.0791,-11.23686 6.0782,-14.25404 3.3061,-3.32622 6.8235,-4.64844 12.45,-4.68015 5.5462,-0.0313 9.1463,1.19891 12.1084,4.13746 4.225,4.19144 5.9642,11.18879 5.2929,21.29541 -0.3613,5.43989 -0.8004,8.90219 -1.3922,10.97988 -0.139,0.48799 -0.9413,0.525 -11.3794,0.525 l -11.2297,0 0.01,6.075 c 0.014,9.14091 0.642,12.78384 2.5725,14.92068 1.2993,1.43817 2.6423,1.91085 4.954,1.74363 1.963,-0.14196 2.9975,-0.73233 4.086,-2.3316 0.9721,-1.42821 1.3046,-2.78355 1.4921,-6.08271 l 0.1663,-2.925 5.2427,0 5.2427,0 -0.2077,3.375 c -0.2802,4.55169 -0.8452,7.15986 -2.1065,9.7224 -1.7458,3.54696 -4.9021,5.98062 -9.3014,7.17165 -2.5327,0.68571 -8.8025,0.84495 -11.0325,0.2802 z m 11.6389,-43.49051 c 0.2468,-3.62156 -0.2032,-9.45989 -0.9097,-11.80161 -0.5381,-1.78372 -2.0857,-3.69337 -3.4514,-4.25909 -1.2923,-0.53525 -3.9029,-0.24711 -5.0295,0.55512 -2.192,1.56083 -3.3609,6.50272 -3.364,14.22184 l 0,4.425 6.2711,0 6.2712,0 0.2141,-3.14126 z m 148.34362,43.60547 c -4.2477,-0.68388 -8.48697,-4.04715 -10.61982,-8.42535 -2.51373,-5.16006 -3.42264,-10.73958 -3.67965,-22.58886 -0.40926,-18.86744 1.30938,-28.00713 6.26508,-33.31787 3.20112,-3.43044 6.53952,-4.6558 12.68439,-4.6558 4.41885,0 6.46899,0.41892 9.21636,1.88325 4.69977,2.50495 7.80855,8.71953 8.98533,17.96196 0.62682,4.92312 0.53349,24.90588 -0.13728,29.39061 -0.70176,4.69209 -1.48776,7.40802 -3.12165,10.78632 -2.34123,4.84089 -5.98164,7.90041 -10.55343,8.86944 -2.18961,0.46413 -6.47139,0.50973 -9.03933,0.0963 z m 7.23063,-9.95082 c 1.32285,-0.89103 2.26971,-2.64201 2.90385,-5.36991 0.44811,-1.92768 0.50964,-4.2474 0.50781,-19.14348 -0.003,-14.82578 -0.066,-17.24416 -0.51201,-19.29726 -0.93576,-4.30775 -2.58234,-6.20274 -5.38953,-6.20274 -3.71361,0 -5.52912,2.80539 -6.22896,9.6252 -0.17148,1.67111 -0.31179,8.74727 -0.31179,15.7248 0,6.97754 0.14031,14.05371 0.31179,15.7248 0.69789,6.80058 2.50596,9.62139 6.16884,9.62409 1.09941,0 1.81782,-0.19233 2.55,-0.6855 z m 36.49839,9.97677 c -2.21364,-0.37275 -4.44024,-1.19085 -6.07902,-2.23359 -5.28912,-3.36543 -7.16775,-10.52052 -4.93716,-18.80426 l 0.31029,-1.15231 4.29414,0 4.29417,0 0.20175,2.87004 c 0.54057,7.69044 2.20995,10.02996 7.15686,10.02996 3.45111,0 5.37282,-1.87755 5.37282,-5.24934 0,-3.10272 -1.0968,-4.82646 -8.85018,-13.90899 -8.24601,-9.65962 -11.78826,-15.2045 -12.96303,-20.29167 -0.68949,-2.98578 -0.62397,-7.57855 0.14337,-10.05 2.06592,-6.65385 7.88724,-10.29471 16.37697,-10.24272 8.94975,0.0548 14.44938,4.18761 15.49332,11.64279 0.34974,2.49739 0.14289,5.36289 -0.65142,9.02493 l -0.34161,1.575 -4.28436,0 -4.28436,0 -0.21078,-3.42289 c -0.33024,-5.36232 -1.16568,-7.75483 -3.18702,-9.12668 -0.88989,-0.60396 -1.32624,-0.68732 -3.13509,-0.59891 -3.60189,0.17604 -5.25129,2.01905 -5.24574,5.86153 0.005,3.58822 0.93357,5.09246 8.90697,14.43119 8.49195,9.94608 10.30104,12.55382 12.14436,17.50573 1.19406,3.20773 1.50543,7.97008 0.72279,11.05573 -1.49793,5.90598 -5.55783,9.62004 -11.9394,10.9224 -2.41716,0.49329 -6.88008,0.57099 -9.30864,0.16206 z m 40.12365,-0.14421 c -5.47383,-1.13481 -9.18399,-4.51131 -10.54425,-9.59595 -0.56085,-2.09637 -0.51468,-7.4493 0.0878,-10.19148 l 0.49629,-2.25852 4.40913,0 4.40916,0 0.17688,3.375 c 0.0973,1.85625 0.39498,4.09179 0.66153,4.96788 0.64125,2.10771 2.16216,3.77034 3.89202,4.25466 1.85457,0.51927 4.75428,0.27117 5.78775,-0.49518 1.25604,-0.93138 2.16036,-2.7432 2.16603,-4.33965 0.0111,-3.07725 -1.01478,-4.69428 -8.82549,-13.91271 -6.23178,-7.35494 -8.88876,-10.91351 -10.64274,-14.2542 -4.38336,-8.3487 -3.93819,-16.83805 1.14924,-21.91688 3.09165,-3.0864 7.07331,-4.50784 12.62394,-4.5067 8.36937,0.002 13.3713,3.05648 15.3348,9.36525 0.71415,2.29454 0.72084,6.92221 0.015,10.31253 l -0.49971,2.4 -4.23792,0.083 c -4.89411,0.0959 -4.59915,0.30273 -4.60971,-3.23301 -0.0138,-4.58583 -1.32093,-8.28937 -3.29769,-9.34289 -1.24848,-0.66538 -3.79179,-0.73767 -5.20332,-0.1479 -1.84887,0.77251 -3.19533,3.07071 -3.19968,5.46134 -0.006,3.0914 1.7985,5.97213 9.00555,14.37945 8.34756,9.7378 10.65699,13.10798 12.35196,18.02544 2.12199,6.1563 1.09965,12.73605 -2.62203,16.87545 -3.04221,3.38367 -6.84996,4.86918 -12.88716,5.02755 -2.61555,0.0686 -4.59075,-0.0409 -5.99733,-0.33249 z m 38.7711,0.12834 c -4.55616,-1.07379 -8.10111,-5.08986 -9.387,-10.63443 -0.59901,-2.58291 -0.61548,-8.02299 -0.0327,-10.81072 1.74294,-8.33776 7.94394,-13.92717 21.42096,-19.30835 l 2.475,-0.98823 -0.0153,-4.09128 c -0.0219,-5.89544 -0.40959,-10.2315 -1.0317,-11.54254 -0.7851,-1.65446 -2.03592,-2.40648 -4.23558,-2.54654 -2.46477,-0.15694 -3.76638,0.32051 -5.14578,1.88757 -1.51092,1.71652 -2.17527,3.93809 -2.38896,7.98867 l -0.17337,3.28634 -4.67766,-0.0824 -4.67763,-0.0824 -0.36303,-1.95 c -0.50166,-2.69478 -0.47001,-6.6773 0.0714,-8.97401 1.24125,-5.26588 5.18508,-9.00002 11.14341,-10.55087 1.76964,-0.4606 3.30012,-0.61103 6.2442,-0.61374 9.89661,-0.009 14.61756,2.95921 16.52259,10.38862 0.49509,1.93074 0.54726,4.3669 0.64719,30.225 l 0.10872,28.125 -4.66425,0 c -2.56533,0 -4.66527,-0.10125 -4.66653,-0.225 -0.004,-0.35052 -0.58548,-4.0467 -0.75504,-4.79544 -0.13974,-0.61704 -0.28908,-0.53346 -1.87614,1.05 -2.02317,2.01861 -4.61043,3.47583 -7.29447,4.1085 -2.09253,0.49326 -5.46459,0.55662 -7.2483,0.13623 z m 11.71623,-10.05057 c 2.89818,-1.44423 2.76,-0.80514 2.76,-12.76417 0,-6.96119 -0.10311,-10.45955 -0.30831,-10.45955 -0.64833,0 -4.7079,2.19385 -6.22407,3.36357 -2.76873,2.13606 -4.48617,4.88198 -5.35311,8.55875 -0.89526,3.79699 -0.0447,8.81455 1.78473,10.52824 1.88784,1.76841 4.7406,2.06886 7.34076,0.77316 z M 264,161.55001 l 0,-42.15 6.3,0 6.3,0 0,42.15 0,42.15 -6.3,0 -6.3,0 0,-42.15 z m 26.4,8.1 0,-34.05 4.8,0 c 3.6296,0 4.8047,0.0914 4.8194,0.375 0.011,0.20625 0.2482,1.84053 0.5277,3.63173 l 0.5083,3.25673 1.4156,-1.76501 c 3.6913,-4.60214 8.9638,-6.77329 14.7224,-6.0625 2.6628,0.32868 4.3391,1.09628 6.2045,2.8411 1.8123,1.69519 3.0892,4.20283 3.8271,7.51583 0.4793,2.15213 0.525,4.78348 0.525,30.25712 l 0,27.9 -6.225,0.0811 -6.225,0.0811 0,-26.99132 c 0,-18.33415 -0.1048,-27.47998 -0.3267,-28.51485 -1.0887,-5.07626 -6.8417,-5.68233 -10.9166,-1.15004 l -1.3567,1.50893 0,27.56755 0,27.56755 -6.15,0 -6.15,0 0,-34.05 z m 129.3,-0.002 0,-34.06389 4.55945,0.0828 4.5593,0.0828 0.4824,3.06675 c 0.2653,1.68671 0.5535,3.13782 0.6403,3.22468 0.087,0.0869 0.5797,-0.49293 1.0952,-1.28844 1.3239,-2.04321 3.6955,-4.16352 5.6657,-5.06552 3.1055,-1.42175 7.7631,-0.8374 10.2427,1.2851 3.7306,3.19317 4.7025,10.68096 2.465,18.99033 l -0.3331,1.2371 -4.3384,0 -4.3385,0 0,-4.13697 c 0,-6.63966 -0.9477,-9.06453 -3.5417,-9.06191 -1.343,0.002 -2.7198,0.79513 -3.772,2.17463 l -0.7832,1.02683 -0.076,28.17371 -0.077,28.17371 -6.225,0.0811 -6.22505,0.0811 0,-34.06391 z m 88.20005,-10.94211 0,-45.00609 6.301,0 6.3009,0 -0.076,44.925 -0.076,44.925 -6.225,0.0811 -6.225,0.0811 0,-45.00609 z m 5.7,-55.84038 c -0.9075,-0.14529 -2.73,-0.79541 -4.05,-1.44473 -6.3625,-3.129727 -9.9819,-9.912027 -10.9659,-20.548927 -0.224,-2.4213 -0.2901,-9.98705 -0.1994,-22.82204 0.1121,-15.8562 0.2173,-19.59185 0.6043,-21.45 1.5366,-7.378453 4.1048,-11.997073 8.243,-14.824593 2.6382,-1.80261 5.5705,-2.79985 9.4917,-3.228 9.0628,-0.98956 16.15919,2.06592 19.31303,8.31554 1.69365,3.35611 2.26278,9.191743 1.44006,14.766023 -0.27429,1.85844 -0.57573,3.57969 -0.66987,3.825 -0.14172,0.36936 -1.00842,0.44603 -5.04222,0.44603 l -4.871,0 -0.1986,-4.425 c -0.2191,-4.88331 -0.7043,-7.42372 -1.8495,-9.68356 -1.4189,-2.800163 -4.2486,-4.063133 -7.4485,-3.324513 -1.9552,0.45132 -3.3316,1.52252 -4.2104,3.276673 -1.546,3.08597 -1.5367,2.90871 -1.5367,29.4564 0,27.07679 -0.038,26.44061 1.7672,29.52108 1.9904,3.39638 7.6533,3.88026 10.4363,0.89175 1.2232,-1.31362 2.2942,-3.69582 2.8332,-6.30216 0.3611,-1.74596 0.4962,-4.20603 0.5248,-9.55597 l 0.038,-7.2047 -3.225,-0.0851 -3.225,-0.0851 0,-4.03985 0,-4.03985 9.29995,0 9.3,0 0,21 0,20.999987 -4.15953,0 -4.15953,0 -0.53184,-3.374987 c -0.2925,-1.85625 -0.62421,-3.55157 -0.7371,-3.76737 -0.13506,-0.25816 -0.57705,0.20993 -1.29219,1.36855 -3.25296,5.270157 -8.27366,7.403517 -14.91976,6.339517 z m 75.63165,0.01 c -7.8294,-1.0143 -12.05532,-6.199607 -14.32191,-17.573217 -0.63813,-3.20215 -0.93828,-25.41668 -0.40839,-30.22717 1.23315,-11.19489 5.00115,-17.51797 11.77419,-19.75828 2.82861,-0.93562 10.01541,-0.937 12.98556,-0.002 6.36183,2.00166 10.02558,7.88387 11.38911,18.28551 0.63369,4.83398 0.63369,24.46653 0,29.30051 -1.96092,14.95877 -9.05697,21.576597 -21.41856,19.975137 z m 5.85822,-9.764437 c 1.2672,-0.60133 2.3118,-2.31494 2.99613,-4.91502 0.44292,-1.68285 0.52893,-4.0753 0.63612,-17.69594 0.15732,-19.99345 -0.14286,-22.95178 -2.59596,-25.58163 -1.00155,-1.0737 -1.31745,-1.22657 -2.78652,-1.3484 -3.16584,-0.26253 -4.82058,1.25362 -5.99157,5.48979 -0.63225,2.28722 -0.66576,3.04323 -0.77706,17.54024 -0.12189,15.87197 0.0681,19.69445 1.12887,22.71869 0.717,2.04408 1.54989,3.18322 2.76555,3.78239 1.27008,0.62599 3.31686,0.63037 4.62444,0.01 z m 37.00986,9.780737 c -6.15228,-0.85987 -10.20168,-3.991827 -11.74944,-9.087467 -0.83457,-2.74763 -0.89496,-7.1952 -0.14226,-10.47923 l 0.53286,-2.325 4.32954,0 4.32954,0 0,1.28287 c 0,4.08897 1.04568,8.22552 2.45985,9.73085 1.57449,1.67596 6.13395,2.13679 7.96191,0.80471 1.09644,-0.799 2.17824,-2.96968 2.17824,-4.37074 0,-2.82824 -1.48473,-5.14655 -8.70681,-13.59517 -10.45371,-12.22905 -13.49319,-17.86898 -13.49319,-25.03747 0,-9.33441 6.39303,-15.2888 16.43766,-15.30984 10.86576,-0.0227 16.99086,6.36238 15.73218,16.40013 -0.1824,1.45457 -0.48642,3.35342 -0.6756,4.21967 l -0.34395,1.575 -4.32516,0 -4.32513,0 -0.003,-2.475 c -0.005,-4.90331 -1.10232,-8.64899 -2.92362,-9.975 -0.65202,-0.47472 -1.29879,-0.6 -3.09744,-0.6 -2.04303,0 -2.38821,0.0876 -3.40683,0.86454 -1.46877,1.12028 -1.96983,2.38042 -1.96983,4.95402 0,1.79605 0.14445,2.36495 1.0335,4.07065 1.25469,2.40714 1.67445,2.95093 8.06007,10.44188 6.30981,7.402 8.46984,10.2912 10.20357,13.64803 1.84941,3.58076 2.60286,6.42539 2.60286,9.82682 0,7.79053 -3.98058,13.087547 -11.26035,14.984297 -2.25096,0.58648 -6.88731,0.80821 -9.43989,0.45145 z m 37.21383,-9e-4 c -3.31974,-0.69677 -6.60006,-3.307977 -8.25273,-6.569377 -1.88355,-3.71701 -2.52468,-10.0269 -1.51104,-14.87143 1.60551,-7.67343 7.5405,-13.24921 19.35018,-18.17905 l 4.05,-1.69064 0.0831,-4.76515 c 0.0979,-5.61057 -0.29115,-9.69649 -1.04589,-10.98518 -1.00662,-1.71875 -1.97058,-2.17998 -4.55613,-2.17998 -2.03496,0 -2.48061,0.10305 -3.57363,0.82637 -2.2053,1.4594 -3.35745,4.68376 -3.35745,9.39601 l 0,2.54286 -4.72296,-0.0826 -4.72299,-0.0826 -0.36303,-1.95 c -1.38066,-7.41626 0.66,-13.27376 5.88075,-16.88014 3.75843,-2.59622 10.30371,-3.56107 16.71393,-2.4638 4.67169,0.79966 7.91778,2.8992 9.59919,6.20863 1.81923,3.58075 1.73265,2.03312 1.83843,32.86031 l 0.097,28.274997 -4.47765,0 c -5.11047,0 -4.60383,0.31869 -5.0079,-3.149997 -0.11535,-0.99 -0.2664,-1.89814 -0.33567,-2.01809 -0.0693,-0.11995 -0.84615,0.50207 -1.72635,1.38226 -1.84212,1.842127 -4.12191,3.224157 -6.44061,3.904337 -2.05212,0.60199 -5.78382,0.8364 -7.51857,0.4723 z m 10.63641,-9.850997 c 0.66,-0.30086 1.63875,-0.9174 2.175,-1.37008 l 0.975,-0.82305 0,-10.49355 0,-10.49355 -0.675,0.20487 c -1.94487,0.59027 -5.44056,2.7384 -7.0482,4.33115 -3.10263,3.07387 -4.45548,6.80245 -4.22409,11.64194 0.23673,4.95115 2.34195,7.57196 6.06948,7.55589 0.8403,-0.004 2.06781,-0.25275 2.72781,-0.55362 z m -129.45,-34.98979 0,-44.250003 6.15,0 6.15,0 0,44.250003 0,44.249987 -6.15,0 -6.15,0 0,-44.249987 z"
     id="path4861"
     inkscape:connector-curvature="0" />
</svg>
